<?xml version="1.0" standalone="no"?>
<!DOCTYPE svg PUBLIC "-//W3C//DTD SVG 20010904//EN"
 "http://www.w3.org/TR/2001/REC-SVG-20010904/DTD/svg10.dtd">
<svg version="1.0" xmlns="http://www.w3.org/2000/svg"
 width="700.000000pt" height="700.000000pt" viewBox="0 0 700.000000 700.000000"
 preserveAspectRatio="xMidYMid meet">
<metadata>
Created by potrace 1.14, written by Peter Selinger 2001-2017
</metadata>
<g transform="translate(0.000000,700.000000) scale(0.100000,-0.100000)"
fill="#000000" stroke="none">
<path d="M3215 6923 c-693 -62 -1327 -317 -1870 -749 -141 -113 -406 -378
-519 -519 -422 -529 -670 -1134 -741 -1802 -19 -177 -19 -529 0 -706 71 -667
320 -1273 741 -1802 111 -139 376 -404 519 -519 489 -392 1072 -642 1705 -731
157 -22 580 -31 752 -15 440 39 850 157 1243 355 536 271 976 661 1310 1160
296 443 474 915 552 1468 25 175 25 699 0 877 -91 645 -337 1220 -733 1715
-113 141 -378 406 -519 519 -522 418 -1138 671 -1802 741 -125 13 -524 18
-638 8z m1060 -1257 l470 -105 20 26 c54 72 93 106 153 135 60 30 75 33 157
33 77 0 98 -4 147 -27 209 -98 279 -346 152 -535 -68 -100 -151 -145 -279
-151 -112 -5 -180 18 -255 85 -60 54 -94 109 -113 183 l-14 54 -419 93 c-230
50 -420 90 -423 87 -3 -2 -68 -278 -146 -612 l-141 -607 80 -8 c351 -33 496
-60 731 -138 181 -60 448 -189 598 -288 59 -39 110 -71 114 -71 3 0 29 18 57
40 106 81 256 127 376 115 383 -39 590 -421 419 -773 -37 -75 -128 -175 -197
-217 l-49 -30 5 -105 c11 -254 -66 -531 -211 -752 -110 -169 -225 -283 -407
-403 -345 -228 -726 -373 -1138 -435 -280 -42 -708 -37 -992 11 -444 75 -903
277 -1223 537 -211 171 -368 430 -435 716 -22 94 -26 136 -26 273 l-1 162 -31
14 c-46 22 -148 120 -185 178 -161 251 -92 595 147 739 95 57 175 79 285 80
138 0 244 -36 338 -114 24 -20 47 -36 52 -36 5 0 56 31 113 69 362 239 802
387 1244 420 68 5 125 10 127 12 2 2 74 310 160 684 87 374 161 690 166 702 9
24 64 63 89 63 8 0 227 -47 485 -104z"/>
<path d="M2520 3425 c-25 -8 -70 -31 -100 -52 -192 -134 -214 -412 -46 -572
63 -59 111 -85 190 -101 121 -25 240 12 332 104 92 92 129 211 104 332 -16 79
-42 127 -101 190 -69 72 -148 107 -254 111 -51 2 -97 -3 -125 -12z"/>
<path d="M4265 3427 c-144 -48 -235 -149 -265 -291 -25 -121 12 -240 104 -332
65 -65 131 -97 223 -110 58 -7 151 10 207 38 65 33 141 112 172 181 26 55 29
73 29 157 0 85 -3 101 -29 155 -38 76 -106 144 -181 180 -71 34 -193 44 -260
22z"/>
<path d="M2564 2166 c-32 -27 -38 -82 -13 -112 23 -29 158 -113 254 -159 403
-193 845 -212 1260 -56 179 68 376 186 395 237 13 34 3 70 -27 94 -40 31 -75
25 -154 -26 -466 -302 -1092 -302 -1558 0 -82 52 -117 57 -157 22z"/>
</g>
</svg>
